# xmcd
#
# Track frame offsets:
#	150
#	10211
#	12548
#	21178
#	24501
#	48875
#	89174
#	92150
#	109488
#	125861
#	137182
#	156306
#	176738
#
# Disc length: 2612 seconds
#
# Revision: 1
# Processed by: cddbd v1.5.1PL0 Copyright (c) Steve Scherf et al.
# Submitted via: CDex 1.50Beta5
#
DISCID=b70a320d
DTITLE=岩城由奈・鳥居花音・日向裕羅 - サウンドステージEXTRA
DYEAR=1900
DGENRE=Other
TTITLE0=ごあいさつ!
TTITLE1=CM〜とらいあんぐるハートDVD〜
TTITLE2=オープニングトーク
TTITLE3=コーナー説明
TTITLE4=日向裕羅/海鳴市役所・お悩み相談室
TTITLE5=鳥居花音/ラジステ裁判所
TTITLE6=CM〜サウンドステージシリーズ〜
TTITLE7=岩城由奈/涙の失敗談
TTITLE8=メッセージボックス
TTITLE9=「熱血!テニス少女物語」
TTITLE10=エンディングトーク
TTITLE11=いっしょにAll Night
TTITLE12=arrive
EXTD=
EXTT0=
EXTT1=
EXTT2=
EXTT3=
EXTT4=
EXTT5=
EXTT6=
EXTT7=
EXTT8=
EXTT9=
EXTT10=
EXTT11=
EXTT12=
PLAYORDER=
